<?xml version="1.0" encoding="UTF-8" standalone="no"?>
<!-- Created with Inkscape (http://www.inkscape.org/) -->

<svg
   version="1.1"
   id="svg1"
   width="1721"
   height="1277"
   viewBox="1140 1362 1721 1277"
   sodipodi:docname="Miraluz Studio_Final.ai"
   xmlns:inkscape="http://www.inkscape.org/namespaces/inkscape"
   xmlns:sodipodi="http://sodipodi.sourceforge.net/DTD/sodipodi-0.dtd"
   xmlns="http://www.w3.org/2000/svg"
   xmlns:svg="http://www.w3.org/2000/svg">
  <defs
     id="defs1">
    <clipPath
       clipPathUnits="userSpaceOnUse"
       id="clipPath62">
      <path
         d="M 0,3000 H 3000 V 0 H 0 Z"
         transform="translate(-1545.2169,-1297.5907)"
         id="path62" />
    </clipPath>
    <clipPath
       clipPathUnits="userSpaceOnUse"
       id="clipPath64">
      <path
         d="M 0,3000 H 3000 V 0 H 0 Z"
         transform="translate(-1586.7042,-1232.2743)"
         id="path64" />
    </clipPath>
    <clipPath
       clipPathUnits="userSpaceOnUse"
       id="clipPath66">
      <path
         d="M 0,3000 H 3000 V 0 H 0 Z"
         transform="translate(-1566.894,-1170.0109)"
         id="path66" />
    </clipPath>
    <clipPath
       clipPathUnits="userSpaceOnUse"
       id="clipPath68">
      <path
         d="M 0,3000 H 3000 V 0 H 0 Z"
         transform="translate(-1521.4159,-1797.3696)"
         id="path68" />
    </clipPath>
    <clipPath
       clipPathUnits="userSpaceOnUse"
       id="clipPath70">
      <path
         d="M 0,3000 H 3000 V 0 H 0 Z"
         transform="translate(-1282.5891,-1754.7366)"
         id="path70" />
    </clipPath>
    <clipPath
       clipPathUnits="userSpaceOnUse"
       id="clipPath72">
      <path
         d="M 0,3000 H 3000 V 0 H 0 Z"
         transform="translate(-1717.4109,-1754.7366)"
         id="path72" />
    </clipPath>
    <clipPath
       clipPathUnits="userSpaceOnUse"
       id="clipPath74">
      <path
         d="M 0,3000 H 3000 V 0 H 0 Z"
         transform="translate(-989.1829,-1379.9052)"
         id="path74" />
    </clipPath>
    <clipPath
       clipPathUnits="userSpaceOnUse"
       id="clipPath76">
      <path
         d="M 0,3000 H 3000 V 0 H 0 Z"
         transform="translate(-1502.229,-1307.2698)"
         id="path76" />
    </clipPath>
    <clipPath
       clipPathUnits="userSpaceOnUse"
       id="clipPath78">
      <path
         d="M 0,3000 H 3000 V 0 H 0 Z"
         transform="translate(-1502.229,-1297.5907)"
         id="path78" />
    </clipPath>
    <clipPath
       clipPathUnits="userSpaceOnUse"
       id="clipPath80">
      <path
         d="M 0,3000 H 3000 V 0 H 0 Z"
         transform="translate(-1502.229,-1297.5907)"
         id="path80" />
    </clipPath>
    <clipPath
       clipPathUnits="userSpaceOnUse"
       id="clipPath82">
      <path
         d="M 0,3000 H 3000 V 0 H 0 Z"
         transform="translate(-1493.8884,-1303.1538)"
         id="path82" />
    </clipPath>
    <clipPath
       clipPathUnits="userSpaceOnUse"
       id="clipPath84">
      <path
         d="M 0,3000 H 3000 V 0 H 0 Z"
         transform="translate(-1502.2092,-1297.5907)"
         id="path84" />
    </clipPath>
    <clipPath
       clipPathUnits="userSpaceOnUse"
       id="clipPath86">
      <path
         d="M 0,3000 H 3000 V 0 H 0 Z"
         transform="translate(-1520.0433,-1487.9272)"
         id="path86" />
    </clipPath>
  </defs>
  <sodipodi:namedview
     id="namedview1"
     pagecolor="#ffffff"
     bordercolor="#000000"
     borderopacity="0.25"
     inkscape:showpageshadow="2"
     inkscape:pageopacity="0.0"
     inkscape:pagecheckerboard="0"
     inkscape:deskcolor="#d1d1d1">
    <inkscape:page
       x="0"
       y="0"
       inkscape:label="2"
       id="page60"
       width="4000"
       height="4000"
       margin="1401.72 1179.6934 1401.72 1179.6986"
       bleed="0" />
  </sodipodi:namedview>
  <g
     id="layer-MC0"
     inkscape:groupmode="layer"
     inkscape:label="BG"
     transform="translate(-4020)" />
  <g
     id="layer-MC1"
     inkscape:groupmode="layer"
     inkscape:label="Your design"
     transform="translate(-4020)">
    <path
       id="path61"
       d="m 0,0 1.511,10.879 c 4.041,28.979 14.584,55.235 31.341,78.038 12.287,16.663 18.791,36.48 18.791,57.305 0,27.039 -10.842,52.1 -30.529,70.583 -18.296,17.186 -41.249,26.274 -66.365,26.274 -2.053,0 -4.115,-0.065 -6.196,-0.187 -49.253,-3.051 -89.019,-44.15 -90.558,-93.563 -0.681,-21.076 5.346,-41.332 17.41,-58.574 17.298,-24.735 28.233,-51.578 32.506,-79.773 L -90.437,0 h -47.817 l -1.419,7.847 c -3.545,19.49 -11.532,38.225 -23.754,55.673 -17.979,25.648 -26.974,55.822 -26.013,87.284 2.295,73.596 61.626,134.858 135.055,139.448 3.106,0.196 6.204,0.29 9.283,0.29 36.77,0 71.814,-13.912 98.685,-39.168 28.915,-27.151 45.494,-65.47 45.494,-105.152 0,-31.06 -9.703,-60.599 -28.056,-85.436 C 63.361,50.364 57.418,38.468 53.313,25.397 51.531,19.696 50.113,13.827 49.114,7.94 L 47.761,0 Z"
       style="fill:#19191a;fill-opacity:1;fill-rule:nonzero;stroke:none"
       transform="matrix(1.3333333,0,0,-1.3333333,6080.2892,2269.8791)"
       clip-path="url(#clipPath62)" />
    <path
       id="path63"
       d="m 0,0 h -173.409 l -3.228,39.252 H 3.229 Z"
       style="fill:#19191a;fill-opacity:1;fill-rule:nonzero;stroke:none"
       transform="matrix(1.3333333,0,0,-1.3333333,6135.6056,2356.9676)"
       clip-path="url(#clipPath64)" />
    <path
       id="path65"
       d="m 0,0 h -129.33 l -3.229,39.252 H 3.229 Z"
       style="fill:#19191a;fill-opacity:1;fill-rule:nonzero;stroke:none"
       transform="matrix(1.3333333,0,0,-1.3333333,6109.1919,2439.9855)"
       clip-path="url(#clipPath66)" />
    <path
       id="path67"
       d="M 0,0 H -42.832 L -77.097,151.339 H 34.265 Z"
       style="fill:#19191a;fill-opacity:1;fill-rule:nonzero;stroke:none"
       transform="matrix(1.3333333,0,0,-1.3333333,6048.5545,1603.5073)"
       clip-path="url(#clipPath68)" />
    <path
       id="path69"
       d="m 0,0 -38.311,-19.152 -98.32,120.045 99.609,49.795 z"
       style="fill:#19191a;fill-opacity:1;fill-rule:nonzero;stroke:none"
       transform="matrix(1.3333333,0,0,-1.3333333,5730.1188,1660.3513)"
       clip-path="url(#clipPath70)" />
    <path
       id="path71"
       d="m 0,0 38.311,-19.152 98.32,120.045 -99.609,49.795 z"
       style="fill:#19191a;fill-opacity:1;fill-rule:nonzero;stroke:none"
       transform="matrix(1.3333333,0,0,-1.3333333,6309.8812,1660.3513)"
       clip-path="url(#clipPath72)" />
    <path
       id="path73"
       d="M 0,0 C 86.553,-81.664 285.716,-242.589 510.806,-242.589 735.896,-242.589 935.037,-81.71 1021.634,0 935.037,81.71 735.896,242.589 510.806,242.589 285.738,242.589 86.597,81.71 0,0 m 510.807,-328.614 c -318.623,0 -569.166,276.944 -579.664,288.73 L -104.409,0 -68.857,39.884 c 10.498,11.786 261.041,288.73 579.664,288.73 318.643,0 569.186,-276.944 579.684,-288.73 L 1126.043,0 1090.491,-39.884 C 1079.993,-51.67 829.45,-328.614 510.807,-328.614"
       style="fill:#19191a;fill-opacity:1;fill-rule:nonzero;stroke:none"
       transform="matrix(1.3333333,0,0,-1.3333333,5338.9105,2160.1264)"
       clip-path="url(#clipPath74)" />
    <path
       id="path75"
       d="M 0,0 V 145.271 Z"
       style="fill:#19191a;fill-opacity:1;fill-rule:nonzero;stroke:#19191a;stroke-width:18;stroke-linecap:butt;stroke-linejoin:miter;stroke-miterlimit:10;stroke-dasharray:none;stroke-opacity:1"
       transform="matrix(1.3333333,0,0,-1.3333333,6022.9719,2256.9736)"
       clip-path="url(#clipPath76)" />
    <path
       id="path77"
       d="m 0,0 c -14.53,37.909 -29.061,75.817 -43.591,113.726 -3.326,8.678 -12.51,17.86 -12.091,31.545 0.838,27.375 32.237,48.815 59.84,63.015"
       style="fill:#19191a;fill-opacity:1;fill-rule:nonzero;stroke:#19191a;stroke-width:18;stroke-linecap:butt;stroke-linejoin:miter;stroke-miterlimit:10;stroke-dasharray:none;stroke-opacity:1"
       transform="matrix(1.3333333,0,0,-1.3333333,6022.9719,2269.8791)"
       clip-path="url(#clipPath78)" />
    <path
       id="path79"
       d="M 0,0 C 18.561,48.424 37.121,96.847 55.682,145.271"
       style="fill:#19191a;fill-opacity:1;fill-rule:nonzero;stroke:#19191a;stroke-width:18;stroke-linecap:butt;stroke-linejoin:miter;stroke-miterlimit:10;stroke-dasharray:none;stroke-opacity:1"
       transform="matrix(1.3333333,0,0,-1.3333333,6022.9719,2269.8791)"
       clip-path="url(#clipPath80)" />
    <path
       id="path81"
       d="M 0,0 H 16.681 Z"
       style="fill:#19191a;fill-opacity:1;fill-rule:nonzero;stroke:#19191a;stroke-width:18;stroke-linecap:butt;stroke-linejoin:miter;stroke-miterlimit:10;stroke-dasharray:none;stroke-opacity:1"
       transform="matrix(1.3333333,0,0,-1.3333333,6011.8512,2262.4616)"
       clip-path="url(#clipPath82)" />
    <path
       id="path83"
       d="m 0,0 c 14.53,37.909 29.061,75.817 43.591,113.726 3.314,8.646 12.496,17.84 12.091,31.545 -0.808,27.354 -32.019,48.81 -59.42,63.015"
       style="fill:#19191a;fill-opacity:1;fill-rule:nonzero;stroke:#19191a;stroke-width:18;stroke-linecap:butt;stroke-linejoin:miter;stroke-miterlimit:10;stroke-dasharray:none;stroke-opacity:1"
       transform="matrix(1.3333333,0,0,-1.3333333,6022.9455,2269.8791)"
       clip-path="url(#clipPath84)" />
    <path
       id="path85"
       d="m 0,0 c 4.429,-1.884 15.068,-7.119 23.024,-18.986 6.565,-9.794 8.13,-19.371 8.584,-24.167"
       style="fill:#19191a;fill-opacity:1;fill-rule:nonzero;stroke:#ffffff;stroke-width:9;stroke-linecap:butt;stroke-linejoin:miter;stroke-miterlimit:10;stroke-dasharray:none;stroke-opacity:1"
       transform="matrix(1.3333333,0,0,-1.3333333,6046.7244,2016.0971)"
       clip-path="url(#clipPath86)" />
  </g>
</svg>
